<mxfile host="65bd71144e">
    <diagram id="p9zcY6BweZdjVfyTSwwJ" name="第 1 页">
        <mxGraphModel dx="645" dy="532" grid="1" gridSize="10" guides="1" tooltips="1" connect="1" arrows="1" fold="1" page="1" pageScale="1" pageWidth="827" pageHeight="1169" math="0" shadow="0">
            <root>
                <mxCell id="0"/>
                <mxCell id="1" parent="0"/>
                <mxCell id="22" value="" style="group" vertex="1" connectable="0" parent="1">
                    <mxGeometry x="120" y="10" width="240" height="300" as="geometry"/>
                </mxCell>
                <mxCell id="20" value="" style="whiteSpace=wrap;html=1;" vertex="1" parent="22">
                    <mxGeometry width="240" height="300" as="geometry"/>
                </mxCell>
                <mxCell id="4" value="" style="group" vertex="1" connectable="0" parent="22">
                    <mxGeometry x="40" y="30" width="190" height="270" as="geometry"/>
                </mxCell>
                <mxCell id="5" value="" style="whiteSpace=wrap;html=1;fontSize=10;fillColor=#647687;fontColor=#ffffff;strokeColor=#314354;dashed=1;" vertex="1" parent="4">
                    <mxGeometry width="120" height="100" as="geometry"/>
                </mxCell>
                <mxCell id="6" style="edgeStyle=none;html=1;exitX=0;exitY=0.25;exitDx=0;exitDy=0;entryX=1;entryY=0.25;entryDx=0;entryDy=0;fontSize=10;endArrow=none;endFill=0;" edge="1" parent="4" source="5" target="5">
                    <mxGeometry relative="1" as="geometry"/>
                </mxCell>
                <mxCell id="7" value="WebAddr" style="text;html=1;align=center;verticalAlign=middle;resizable=0;points=[];autosize=1;strokeColor=none;fillColor=none;fontSize=10;dashed=1;" vertex="1" parent="4">
                    <mxGeometry x="25" width="70" height="30" as="geometry"/>
                </mxCell>
                <mxCell id="8" value="&lt;i&gt;+visit()&lt;br&gt;&lt;/i&gt;" style="text;html=1;align=center;verticalAlign=middle;resizable=0;points=[];autosize=1;strokeColor=none;fillColor=none;fontSize=10;dashed=1;" vertex="1" parent="4">
                    <mxGeometry x="36" y="45" width="50" height="30" as="geometry"/>
                </mxCell>
                <mxCell id="9" value="" style="group" vertex="1" connectable="0" parent="22">
                    <mxGeometry x="40" y="170" width="121" height="100" as="geometry"/>
                </mxCell>
                <mxCell id="10" value="" style="whiteSpace=wrap;html=1;fontSize=10;fillColor=#647687;fontColor=#ffffff;strokeColor=#314354;dashed=1;" vertex="1" parent="9">
                    <mxGeometry width="120" height="100" as="geometry"/>
                </mxCell>
                <mxCell id="11" style="edgeStyle=none;html=1;exitX=0;exitY=0.25;exitDx=0;exitDy=0;entryX=1;entryY=0.25;entryDx=0;entryDy=0;fontSize=10;endArrow=none;endFill=0;" edge="1" parent="9" source="10" target="10">
                    <mxGeometry relative="1" as="geometry"/>
                </mxCell>
                <mxCell id="12" value="Proxy" style="text;html=1;align=center;verticalAlign=middle;resizable=0;points=[];autosize=1;strokeColor=none;fillColor=none;fontSize=10;dashed=1;" vertex="1" parent="9">
                    <mxGeometry x="35" width="50" height="30" as="geometry"/>
                </mxCell>
                <mxCell id="13" value="&lt;i&gt;Proxy(WebAddr*)&lt;br&gt;+visit()&lt;br&gt;-WebAddr* mWebAddr&lt;br&gt;&lt;/i&gt;" style="text;html=1;align=center;verticalAlign=middle;resizable=0;points=[];autosize=1;strokeColor=none;fillColor=none;fontSize=10;dashed=1;" vertex="1" parent="9">
                    <mxGeometry x="1" y="35" width="120" height="50" as="geometry"/>
                </mxCell>
                <mxCell id="15" style="edgeStyle=none;html=1;entryX=0.5;entryY=1;entryDx=0;entryDy=0;" edge="1" parent="22" source="12" target="5">
                    <mxGeometry relative="1" as="geometry"/>
                </mxCell>
                <mxCell id="18" style="edgeStyle=orthogonalEdgeStyle;html=1;exitX=1;exitY=0.5;exitDx=0;exitDy=0;rounded=0;entryX=1.006;entryY=0.123;entryDx=0;entryDy=0;entryPerimeter=0;" edge="1" parent="22" source="16" target="5">
                    <mxGeometry relative="1" as="geometry">
                        <mxPoint x="220" y="70" as="targetPoint"/>
                        <Array as="points">
                            <mxPoint x="190" y="220"/>
                            <mxPoint x="190" y="42"/>
                        </Array>
                    </mxGeometry>
                </mxCell>
                <mxCell id="16" value="" style="rhombus;whiteSpace=wrap;html=1;fontSize=10;" vertex="1" parent="22">
                    <mxGeometry x="160" y="215" width="15" height="10" as="geometry"/>
                </mxCell>
                <mxCell id="19" value="WebAddr combined" style="text;html=1;align=center;verticalAlign=middle;resizable=0;points=[];autosize=1;strokeColor=none;fillColor=none;" vertex="1" parent="22">
                    <mxGeometry x="80" y="140" width="130" height="30" as="geometry"/>
                </mxCell>
            </root>
        </mxGraphModel>
    </diagram>
</mxfile>